<svg width="40" height="40" viewBox="0 0 40 40" fill="none" xmlns="http://www.w3.org/2000/svg">
  <rect width="40" height="40" rx="10" fill="#DC2626"/>
  <!-- B letter -->
  <path d="M6 10h7.5c2.2 0 3.8.5 4.8 1.4 1 .9 1.5 2.1 1.5 3.5 0 1-.3 1.9-.8 2.6-.5.7-1.2 1.1-2 1.3v.2c1.1.2 1.9.7 2.5 1.5.6.8.9 1.8.9 2.9 0 1.6-.6 2.9-1.7 3.8-1.1.9-2.7 1.3-4.7 1.3H6V10zm4.2 7.8h3.6c1 0 1.7-.2 2.2-.6.5-.4.7-1 .7-1.8s-.3-1.3-.8-1.7c-.5-.4-1.3-.6-2.3-.6h-3.4v4.7zm0 3.2v5.2h3.8c1 0 1.8-.2 2.4-.7.6-.5.8-1.1.8-2s-.3-1.5-.8-1.9c-.6-.4-1.4-.6-2.5-.6h-3.7z" fill="white"/>
  <!-- Play triangle -->
  <path d="M26 14l9 6-9 6V14z" fill="rgba(255,255,255,0.75)"/>
</svg>
